<svg width="8" height="8" viewBox="0 0 8 8" fill="none" xmlns="http://www.w3.org/2000/svg">
<g clip-path="url(#clip0_7001_106)">
<path d="M6.57505 6.555C6.63005 6.611 6.66705 6.685 6.57505 6.755L5.42605 7.496C5.33405 7.552 5.29705 7.515 5.26005 7.422L3.83405 4.94L1.96305 7C1.94405 7.036 1.88905 7.073 1.83405 7L0.945047 6.073C0.852047 6.018 0.871047 5.962 0.945047 5.907L3.05605 4.147L0.648047 3.24C0.611047 3.24 0.556047 3.166 0.592047 3.073L1.22205 1.814C1.22691 1.79717 1.23624 1.78197 1.24905 1.77002C1.26186 1.75807 1.27767 1.7498 1.29479 1.74611C1.31192 1.74242 1.32972 1.74344 1.34632 1.74905C1.36292 1.75467 1.37768 1.76467 1.38905 1.778L3.50005 3.148L3.63005 0.448002C3.62681 0.422654 3.6334 0.397028 3.64846 0.376386C3.66353 0.355744 3.68592 0.341652 3.71105 0.337002C3.72102 0.336 3.73107 0.336 3.74105 0.337002L5.27805 0.537002C5.37105 0.537002 5.38905 0.574002 5.37105 0.667002L4.64805 3.314L7.09305 2.573C7.14805 2.536 7.20405 2.536 7.24105 2.647L7.48205 4.017C7.50005 4.11 7.48205 4.147 7.40805 4.147L4.85205 4.347L6.57505 6.555Z" fill="#464646"/>
</g>
<defs>
<clipPath id="clip0_7001_106">
<rect width="8" height="8" fill="white"/>
</clipPath>
</defs>
</svg>
