<svg width="11" height="10" viewBox="0 0 11 10" fill="none" xmlns="http://www.w3.org/2000/svg">
<path d="M7.98195 4.406L7.98095 4.405L4.35995 0.783C4.20241 0.625461 3.98874 0.536957 3.76595 0.536957C3.54315 0.536957 3.32948 0.625461 3.17195 0.783C3.01441 0.940538 2.9259 1.15421 2.9259 1.377C2.9259 1.59979 3.01441 1.81346 3.17195 1.971L6.20195 5L3.17195 8.03C3.02486 8.18954 2.94522 8.39982 2.94972 8.61678C2.95421 8.83373 3.0425 9.04052 3.19607 9.19384C3.34964 9.34715 3.55658 9.43509 3.77355 9.43922C3.99051 9.44335 4.20065 9.36336 4.35995 9.216L7.98095 5.594H7.98195C8.06026 5.51596 8.12239 5.42323 8.16479 5.32113C8.20718 5.21902 8.22901 5.10956 8.22901 4.999C8.22901 4.88844 8.20718 4.77898 8.16479 4.67687C8.12239 4.57477 8.06026 4.48204 7.98195 4.404V4.406Z" fill="#464646"/>
</svg>
