<svg width="18" height="19" viewBox="0 0 18 19" fill="none" xmlns="http://www.w3.org/2000/svg">
<path d="M4 7.51C4.00063 7.31269 4.05962 7.11997 4.16955 6.95611C4.27947 6.79225 4.43542 6.66457 4.61775 6.58915C4.80008 6.51372 5.00065 6.49393 5.19421 6.53225C5.38777 6.57057 5.56566 6.66529 5.7055 6.8045L8.9945 10.0905L12.2835 6.8045C12.471 6.63091 12.7177 6.53565 12.9732 6.53827C13.2287 6.54089 13.4734 6.64119 13.6573 6.81858C13.8412 6.99597 13.9501 7.23701 13.9619 7.49222C13.9736 7.74743 13.8873 7.99746 13.7205 8.191L13.696 8.2155L9.7 12.2075C9.51253 12.3945 9.25855 12.4995 8.99375 12.4995C8.72895 12.4995 8.47497 12.3945 8.2875 12.2075L4.293 8.216C4.20001 8.12347 4.12625 8.01344 4.07596 7.89228C4.02568 7.77111 3.99986 7.64119 4 7.51Z" fill="#464646"/>
</svg>
