<svg width="18" height="18" viewBox="0 0 18 18" fill="none" xmlns="http://www.w3.org/2000/svg">
<path d="M16.75 11H16.25C16.1119 11 16 11.1119 16 11.25V11.75C16 11.8881 16.1119 12 16.25 12H16.75C16.8881 12 17 11.8881 17 11.75V11.25C17 11.1119 16.8881 11 16.75 11Z" fill="#464646"/>
<path d="M16.75 9H16.25C16.1119 9 16 9.11193 16 9.25V9.75C16 9.88807 16.1119 10 16.25 10H16.75C16.8881 10 17 9.88807 17 9.75V9.25C17 9.11193 16.8881 9 16.75 9Z" fill="#464646"/>
<path d="M16.75 7H16.25C16.1119 7 16 7.11193 16 7.25V7.75C16 7.88807 16.1119 8 16.25 8H16.75C16.8881 8 17 7.88807 17 7.75V7.25C17 7.11193 16.8881 7 16.75 7Z" fill="#464646"/>
<path d="M16.75 5H16.25C16.1119 5 16 5.11193 16 5.25V5.75C16 5.88807 16.1119 6 16.25 6H16.75C16.8881 6 17 5.88807 17 5.75V5.25C17 5.11193 16.8881 5 16.75 5Z" fill="#464646"/>
<path d="M16.75 3H16.25C16.1119 3 16 3.11193 16 3.25V3.75C16 3.88807 16.1119 4 16.25 4H16.75C16.8881 4 17 3.88807 17 3.75V3.25C17 3.11193 16.8881 3 16.75 3Z" fill="#464646"/>
<path d="M16.75 1H16.25C16.1119 1 16 1.11193 16 1.25V1.75C16 1.88807 16.1119 2 16.25 2H16.75C16.8881 2 17 1.88807 17 1.75V1.25C17 1.11193 16.8881 1 16.75 1Z" fill="#464646"/>
<path d="M14.75 1H14.25C14.1119 1 14 1.11193 14 1.25V1.75C14 1.88807 14.1119 2 14.25 2H14.75C14.8881 2 15 1.88807 15 1.75V1.25C15 1.11193 14.8881 1 14.75 1Z" fill="#464646"/>
<path d="M12.75 1H12.25C12.1119 1 12 1.11193 12 1.25V1.75C12 1.88807 12.1119 2 12.25 2H12.75C12.8881 2 13 1.88807 13 1.75V1.25C13 1.11193 12.8881 1 12.75 1Z" fill="#464646"/>
<path d="M10.75 1H10.25C10.1119 1 10 1.11193 10 1.25V1.75C10 1.88807 10.1119 2 10.25 2H10.75C10.8881 2 11 1.88807 11 1.75V1.25C11 1.11193 10.8881 1 10.75 1Z" fill="#464646"/>
<path d="M8.75 1H8.25C8.11193 1 8 1.11193 8 1.25V1.75C8 1.88807 8.11193 2 8.25 2H8.75C8.88807 2 9 1.88807 9 1.75V1.25C9 1.11193 8.88807 1 8.75 1Z" fill="#464646"/>
<path d="M6.75 1H6.25C6.11193 1 6 1.11193 6 1.25V1.75C6 1.88807 6.11193 2 6.25 2H6.75C6.88807 2 7 1.88807 7 1.75V1.25C7 1.11193 6.88807 1 6.75 1Z" fill="#464646"/>
<path d="M6.75 3H6.25C6.11193 3 6 3.11193 6 3.25V3.75C6 3.88807 6.11193 4 6.25 4H6.75C6.88807 4 7 3.88807 7 3.75V3.25C7 3.11193 6.88807 3 6.75 3Z" fill="#464646"/>
<path d="M6.75 5H6.25C6.11193 5 6 5.11193 6 5.25V5.75C6 5.88807 6.11193 6 6.25 6H6.75C6.88807 6 7 5.88807 7 5.75V5.25C7 5.11193 6.88807 5 6.75 5Z" fill="#464646"/>
<path d="M6.75 7H6.25C6.11193 7 6 7.11193 6 7.25V7.75C6 7.88807 6.11193 8 6.25 8H6.75C6.88807 8 7 7.88807 7 7.75V7.25C7 7.11193 6.88807 7 6.75 7Z" fill="#464646"/>
<path d="M6.75 9H6.25C6.11193 9 6 9.11193 6 9.25V9.75C6 9.88807 6.11193 10 6.25 10H6.75C6.88807 10 7 9.88807 7 9.75V9.25C7 9.11193 6.88807 9 6.75 9Z" fill="#464646"/>
<path d="M6.75 11H6.25C6.11193 11 6 11.1119 6 11.25V11.75C6 11.8881 6.11193 12 6.25 12H6.75C6.88807 12 7 11.8881 7 11.75V11.25C7 11.1119 6.88807 11 6.75 11Z" fill="#464646"/>
<path d="M8.75 11H8.25C8.11193 11 8 11.1119 8 11.25V11.75C8 11.8881 8.11193 12 8.25 12H8.75C8.88807 12 9 11.8881 9 11.75V11.25C9 11.1119 8.88807 11 8.75 11Z" fill="#464646"/>
<path d="M10.75 11H10.25C10.1119 11 10 11.1119 10 11.25V11.75C10 11.8881 10.1119 12 10.25 12H10.75C10.8881 12 11 11.8881 11 11.75V11.25C11 11.1119 10.8881 11 10.75 11Z" fill="#464646"/>
<path d="M12.75 11H12.25C12.1119 11 12 11.1119 12 11.25V11.75C12 11.8881 12.1119 12 12.25 12H12.75C12.8881 12 13 11.8881 13 11.75V11.25C13 11.1119 12.8881 11 12.75 11Z" fill="#464646"/>
<path d="M14.75 11H14.25C14.1119 11 14 11.1119 14 11.25V11.75C14 11.8881 14.1119 12 14.25 12H14.75C14.8881 12 15 11.8881 15 11.75V11.25C15 11.1119 14.8881 11 14.75 11Z" fill="#464646"/>
<path d="M5 6H1.5C1.36739 6 1.24021 6.05268 1.14645 6.14645C1.05268 6.24021 1 6.36739 1 6.5V16.5C1 16.6326 1.05268 16.7598 1.14645 16.8536C1.24021 16.9473 1.36739 17 1.5 17H11.5C11.6326 17 11.7598 16.9473 11.8536 16.8536C11.9473 16.7598 12 16.6326 12 16.5V13H5.5C5.36739 13 5.24021 12.9473 5.14645 12.8536C5.05268 12.7598 5 12.6326 5 12.5V6Z" fill="#464646"/>
</svg>
