<svg width="18" height="18" viewBox="0 0 18 18" fill="none" xmlns="http://www.w3.org/2000/svg">
<path d="M15.75 3H12V2C12 1.73478 11.8946 1.48043 11.7071 1.29289C11.5196 1.10536 11.2652 1 11 1H6C5.73478 1 5.48043 1.10536 5.29289 1.29289C5.10536 1.48043 5 1.73478 5 2V3H1.25C1.1837 3 1.12011 3.02634 1.07322 3.07322C1.02634 3.12011 1 3.1837 1 3.25V3.75C1 3.8163 1.02634 3.87989 1.07322 3.92678C1.12011 3.97366 1.1837 4 1.25 4H2.25L3.4565 16.55C3.46894 16.6738 3.52706 16.7884 3.61951 16.8717C3.71197 16.9549 3.83212 17.0006 3.9565 17H13.046C13.1704 17.0006 13.2905 16.9549 13.383 16.8717C13.4754 16.7884 13.5336 16.6738 13.546 16.55L14.75 4H15.75C15.8163 4 15.8799 3.97366 15.9268 3.92678C15.9737 3.87989 16 3.8163 16 3.75V3.25C16 3.1837 15.9737 3.12011 15.9268 3.07322C15.8799 3.02634 15.8163 3 15.75 3ZM5.5325 14.5C5.46693 14.5044 5.40113 14.4959 5.33887 14.4748C5.2766 14.4538 5.2191 14.4207 5.16964 14.3774C5.12018 14.3341 5.07974 14.2815 5.05064 14.2226C5.02153 14.1637 5.00432 14.0996 5 14.034L4.4645 6.034C4.4601 5.96834 4.46868 5.90245 4.48974 5.84011C4.5108 5.77776 4.54394 5.72017 4.58726 5.67063C4.63058 5.62109 4.68323 5.58057 4.74221 5.55138C4.80119 5.52219 4.86534 5.5049 4.931 5.5005C4.99666 5.4961 5.06255 5.50468 5.12489 5.52574C5.18724 5.5468 5.24483 5.57994 5.29437 5.62326C5.34391 5.66658 5.38443 5.71923 5.41362 5.77821C5.44281 5.83719 5.4601 5.90134 5.4645 5.967L6 13.967C6.00448 14.0327 5.99592 14.0987 5.97482 14.1611C5.95372 14.2235 5.92049 14.2812 5.87705 14.3307C5.83361 14.3802 5.7808 14.4207 5.72167 14.4497C5.66254 14.4788 5.59825 14.4959 5.5325 14.5ZM9 14C9 14.1326 8.94732 14.2598 8.85355 14.3536C8.75979 14.4473 8.63261 14.5 8.5 14.5C8.36739 14.5 8.24021 14.4473 8.14645 14.3536C8.05268 14.2598 8 14.1326 8 14V6C8 5.86739 8.05268 5.74021 8.14645 5.64645C8.24021 5.55268 8.36739 5.5 8.5 5.5C8.63261 5.5 8.75979 5.55268 8.85355 5.64645C8.94732 5.74021 9 5.86739 9 6V14ZM11 3H6V2H11V3ZM12 14.034C11.9911 14.1666 11.9299 14.2903 11.8299 14.3777C11.7298 14.4652 11.5991 14.5094 11.4665 14.5005C11.3339 14.4916 11.2102 14.4304 11.1228 14.3304C11.0353 14.2303 10.9911 14.0996 11 13.967L11.5355 5.967C11.5399 5.90134 11.5572 5.83719 11.5864 5.77821C11.6156 5.71923 11.6561 5.66658 11.7056 5.62326C11.7552 5.57994 11.8128 5.5468 11.8751 5.52574C11.9375 5.50468 12.0033 5.4961 12.069 5.5005C12.1347 5.5049 12.1988 5.52219 12.2578 5.55138C12.3168 5.58057 12.3694 5.62109 12.4127 5.67063C12.4561 5.72017 12.4892 5.77776 12.5103 5.84011C12.5313 5.90245 12.5399 5.96834 12.5355 6.034L12 14.034Z" fill="#464646"/>
</svg>
