<svg width="18" height="18" viewBox="0 0 18 18" fill="none" xmlns="http://www.w3.org/2000/svg">
<path d="M16.7835 4.10001L13.9 1.21601C13.8431 1.15945 13.7755 1.11473 13.7012 1.08443C13.6269 1.05414 13.5473 1.03887 13.467 1.03951H13.45C13.2753 1.04559 13.1095 1.11821 12.9865 1.24251L2.54203 11.686C2.48314 11.7447 2.43998 11.8173 2.41653 11.897L1.02753 16.55C0.970528 16.7385 1.25703 16.9755 1.41903 16.9755C1.42947 16.9756 1.43988 16.9745 1.45003 16.972C1.58803 16.9405 5.38303 15.8 6.10553 15.583C6.18391 15.5596 6.25511 15.5168 6.31253 15.4585L16.7565 5.01401C16.8747 4.89608 16.9458 4.73911 16.9565 4.57251C16.9629 4.48598 16.9508 4.39908 16.921 4.31761C16.8911 4.23613 16.8443 4.16195 16.7835 4.10001ZM5.70003 14.658C4.61953 14.9825 3.26903 15.3905 2.33553 15.669L3.34003 12.304L5.70003 14.658Z" fill="#464646"/>
</svg>
