<svg width="18" height="19" viewBox="0 0 18 19" fill="none" xmlns="http://www.w3.org/2000/svg">
<path fill-rule="evenodd" clip-rule="evenodd" d="M17.666 10.625L9.37497 2.33399C9.27536 2.23481 9.14053 2.17914 8.99997 2.17914C8.85941 2.17914 8.72458 2.23481 8.62497 2.33399L0.333971 10.625C0.234556 10.7245 0.178711 10.8593 0.178711 11C0.178711 11.1406 0.234556 11.2755 0.333971 11.375L1.31297 12.3535C1.40672 12.4473 1.53387 12.5 1.66647 12.5H1.99997V17C1.99997 17.1326 2.05265 17.2598 2.14642 17.3535C2.24019 17.4473 2.36736 17.5 2.49997 17.5H6.49997C6.63258 17.5 6.75976 17.4473 6.85352 17.3535C6.94729 17.2598 6.99997 17.1326 6.99997 17V12C6.99997 11.8674 7.05265 11.7402 7.14642 11.6464C7.24019 11.5527 7.36736 11.5 7.49997 11.5H10.5C10.6326 11.5 10.7598 11.5527 10.8535 11.6464C10.9473 11.7402 11 11.8674 11 12V17C11 17.1326 11.0526 17.2598 11.1464 17.3535C11.2402 17.4473 11.3674 17.5 11.5 17.5H15.5C15.6326 17.5 15.7598 17.4473 15.8535 17.3535C15.9473 17.2598 16 17.1326 16 17V12.5H16.3335C16.4661 12.5 16.5932 12.4473 16.687 12.3535L17.666 11.375C17.7654 11.2755 17.8212 11.1406 17.8212 11C17.8212 10.8593 17.7654 10.7245 17.666 10.625Z" fill="#464646"/>
</svg>
