<svg width="18" height="19" viewBox="0 0 18 19" fill="none" xmlns="http://www.w3.org/2000/svg">
<path d="M3.5 1.5H1.5C1.22386 1.5 1 1.72386 1 2V4C1 4.27614 1.22386 4.5 1.5 4.5H3.5C3.77614 4.5 4 4.27614 4 4V2C4 1.72386 3.77614 1.5 3.5 1.5Z" fill="#464646"/>
<path d="M9.5 1.5H7.5C7.22386 1.5 7 1.72386 7 2V4C7 4.27614 7.22386 4.5 7.5 4.5H9.5C9.77614 4.5 10 4.27614 10 4V2C10 1.72386 9.77614 1.5 9.5 1.5Z" fill="#464646"/>
<path d="M15.5 1.5H13.5C13.2239 1.5 13 1.72386 13 2V4C13 4.27614 13.2239 4.5 13.5 4.5H15.5C15.7761 4.5 16 4.27614 16 4V2C16 1.72386 15.7761 1.5 15.5 1.5Z" fill="#464646"/>
<path d="M3.5 7.5H1.5C1.22386 7.5 1 7.72386 1 8V10C1 10.2761 1.22386 10.5 1.5 10.5H3.5C3.77614 10.5 4 10.2761 4 10V8C4 7.72386 3.77614 7.5 3.5 7.5Z" fill="#464646"/>
<path d="M9.5 7.5H7.5C7.22386 7.5 7 7.72386 7 8V10C7 10.2761 7.22386 10.5 7.5 10.5H9.5C9.77614 10.5 10 10.2761 10 10V8C10 7.72386 9.77614 7.5 9.5 7.5Z" fill="#464646"/>
<path d="M15.5 7.5H13.5C13.2239 7.5 13 7.72386 13 8V10C13 10.2761 13.2239 10.5 13.5 10.5H15.5C15.7761 10.5 16 10.2761 16 10V8C16 7.72386 15.7761 7.5 15.5 7.5Z" fill="#464646"/>
<path d="M3.5 13.5H1.5C1.22386 13.5 1 13.7239 1 14V16C1 16.2761 1.22386 16.5 1.5 16.5H3.5C3.77614 16.5 4 16.2761 4 16V14C4 13.7239 3.77614 13.5 3.5 13.5Z" fill="#464646"/>
<path d="M9.5 13.5H7.5C7.22386 13.5 7 13.7239 7 14V16C7 16.2761 7.22386 16.5 7.5 16.5H9.5C9.77614 16.5 10 16.2761 10 16V14C10 13.7239 9.77614 13.5 9.5 13.5Z" fill="#464646"/>
<path d="M15.5 13.5H13.5C13.2239 13.5 13 13.7239 13 14V16C13 16.2761 13.2239 16.5 13.5 16.5H15.5C15.7761 16.5 16 16.2761 16 16V14C16 13.7239 15.7761 13.5 15.5 13.5Z" fill="#464646"/>
</svg>
