<svg width="18" height="19" viewBox="0 0 18 19" fill="none" xmlns="http://www.w3.org/2000/svg">
<path d="M2 3V16C2 16.1326 2.05268 16.2598 2.14645 16.3536C2.24021 16.4473 2.36739 16.5 2.5 16.5H15.5C15.6326 16.5 15.7598 16.4473 15.8536 16.3536C15.9473 16.2598 16 16.1326 16 16V3C16 2.86739 15.9473 2.74021 15.8536 2.64645C15.7598 2.55268 15.6326 2.5 15.5 2.5H2.5C2.36739 2.5 2.24021 2.55268 2.14645 2.64645C2.05268 2.74021 2 2.86739 2 3V3ZM5 15.25C5 15.3163 4.97366 15.3799 4.92678 15.4268C4.87989 15.4737 4.8163 15.5 4.75 15.5H3.25C3.1837 15.5 3.12011 15.4737 3.07322 15.4268C3.02634 15.3799 3 15.3163 3 15.25V13.75C3 13.6837 3.02634 13.6201 3.07322 13.5732C3.12011 13.5263 3.1837 13.5 3.25 13.5H4.75C4.8163 13.5 4.87989 13.5263 4.92678 13.5732C4.97366 13.6201 5 13.6837 5 13.75V15.25ZM5 11.897C5 11.9633 4.97366 12.0269 4.92678 12.0738C4.87989 12.1207 4.8163 12.147 4.75 12.147H3.25C3.1837 12.147 3.12011 12.1207 3.07322 12.0738C3.02634 12.0269 3 11.9633 3 11.897V10.397C3 10.3307 3.02634 10.2671 3.07322 10.2202C3.12011 10.1733 3.1837 10.147 3.25 10.147H4.75C4.8163 10.147 4.87989 10.1733 4.92678 10.2202C4.97366 10.2671 5 10.3307 5 10.397V11.897ZM5 8.603C5 8.6693 4.97366 8.73289 4.92678 8.77978C4.87989 8.82666 4.8163 8.853 4.75 8.853H3.25C3.1837 8.853 3.12011 8.82666 3.07322 8.77978C3.02634 8.73289 3 8.6693 3 8.603V7.103C3 7.0367 3.02634 6.97311 3.07322 6.92622C3.12011 6.87934 3.1837 6.853 3.25 6.853H4.75C4.8163 6.853 4.87989 6.87934 4.92678 6.92622C4.97366 6.97311 5 7.0367 5 7.103V8.603ZM5 5.25C5 5.3163 4.97366 5.37989 4.92678 5.42678C4.87989 5.47366 4.8163 5.5 4.75 5.5H3.25C3.1837 5.5 3.12011 5.47366 3.07322 5.42678C3.02634 5.37989 3 5.3163 3 5.25V3.75C3 3.6837 3.02634 3.62011 3.07322 3.57322C3.12011 3.52634 3.1837 3.5 3.25 3.5H4.75C4.8163 3.5 4.87989 3.52634 4.92678 3.57322C4.97366 3.62011 5 3.6837 5 3.75V5.25ZM11.75 9.5H6.25C6.1837 9.5 6.12011 9.47366 6.07322 9.42678C6.02634 9.37989 6 9.3163 6 9.25V8.75C6 8.6837 6.02634 8.62011 6.07322 8.57322C6.12011 8.52634 6.1837 8.5 6.25 8.5H11.75C11.8163 8.5 11.8799 8.52634 11.9268 8.57322C11.9737 8.62011 12 8.6837 12 8.75V9.25C12 9.3163 11.9737 9.37989 11.9268 9.42678C11.8799 9.47366 11.8163 9.5 11.75 9.5ZM15 15.25C15 15.3163 14.9737 15.3799 14.9268 15.4268C14.8799 15.4737 14.8163 15.5 14.75 15.5H13.25C13.1837 15.5 13.1201 15.4737 13.0732 15.4268C13.0263 15.3799 13 15.3163 13 15.25V13.75C13 13.6837 13.0263 13.6201 13.0732 13.5732C13.1201 13.5263 13.1837 13.5 13.25 13.5H14.75C14.8163 13.5 14.8799 13.5263 14.9268 13.5732C14.9737 13.6201 15 13.6837 15 13.75V15.25ZM15 11.897C15 11.9633 14.9737 12.0269 14.9268 12.0738C14.8799 12.1207 14.8163 12.147 14.75 12.147H13.25C13.1837 12.147 13.1201 12.1207 13.0732 12.0738C13.0263 12.0269 13 11.9633 13 11.897V10.397C13 10.3307 13.0263 10.2671 13.0732 10.2202C13.1201 10.1733 13.1837 10.147 13.25 10.147H14.75C14.8163 10.147 14.8799 10.1733 14.9268 10.2202C14.9737 10.2671 15 10.3307 15 10.397V11.897ZM15 8.603C15 8.6693 14.9737 8.73289 14.9268 8.77978C14.8799 8.82666 14.8163 8.853 14.75 8.853H13.25C13.1837 8.853 13.1201 8.82666 13.0732 8.77978C13.0263 8.73289 13 8.6693 13 8.603V7.103C13 7.0367 13.0263 6.97311 13.0732 6.92622C13.1201 6.87934 13.1837 6.853 13.25 6.853H14.75C14.8163 6.853 14.8799 6.87934 14.9268 6.92622C14.9737 6.97311 15 7.0367 15 7.103V8.603ZM15 5.25C15 5.3163 14.9737 5.37989 14.9268 5.42678C14.8799 5.47366 14.8163 5.5 14.75 5.5H13.25C13.1837 5.5 13.1201 5.47366 13.0732 5.42678C13.0263 5.37989 13 5.3163 13 5.25V3.75C13 3.6837 13.0263 3.62011 13.0732 3.57322C13.1201 3.52634 13.1837 3.5 13.25 3.5H14.75C14.8163 3.5 14.8799 3.52634 14.9268 3.57322C14.9737 3.62011 15 3.6837 15 3.75V5.25Z" fill="#464646"/>
</svg>
