<svg width="18" height="18" viewBox="0 0 18 18" fill="none" xmlns="http://www.w3.org/2000/svg">
<path d="M16.45 7.89651H14.8945C14.7454 7.09011 14.4319 6.32303 13.9735 5.64301L15.076 4.54001C15.1274 4.4889 15.1682 4.42813 15.196 4.3612C15.2239 4.29427 15.2382 4.2225 15.2382 4.15001C15.2382 4.07752 15.2239 4.00575 15.196 3.93882C15.1682 3.87189 15.1274 3.81112 15.076 3.76001L14.2395 2.92401C14.1884 2.87261 14.1276 2.83182 14.0607 2.80399C13.9938 2.77615 13.922 2.76183 13.8495 2.76183C13.777 2.76183 13.7053 2.77615 13.6383 2.80399C13.5714 2.83182 13.5106 2.87261 13.4595 2.92401L12.357 4.02651C11.6771 3.56798 10.91 3.25461 10.1035 3.10601V1.55001C10.1035 1.47749 10.0892 1.40568 10.0613 1.33872C10.0335 1.27177 9.99263 1.21098 9.94118 1.15986C9.88974 1.10874 9.8287 1.0683 9.76156 1.04087C9.69443 1.01344 9.62253 0.99955 9.55001 1.00001H8.45001C8.30414 1.00001 8.16425 1.05796 8.0611 1.1611C7.95796 1.26425 7.90001 1.40414 7.90001 1.55001V3.10601C7.09354 3.25461 6.32638 3.56798 5.64651 4.02651L4.54651 2.92401C4.4954 2.87261 4.43463 2.83182 4.3677 2.80399C4.30077 2.77615 4.229 2.76183 4.15651 2.76183C4.08402 2.76183 4.01225 2.77615 3.94532 2.80399C3.87839 2.83182 3.81762 2.87261 3.76651 2.92401L2.92401 3.76001C2.87261 3.81112 2.83182 3.87189 2.80399 3.93882C2.77615 4.00575 2.76183 4.07752 2.76183 4.15001C2.76183 4.2225 2.77615 4.29427 2.80399 4.3612C2.83182 4.42813 2.87261 4.4889 2.92401 4.54001L4.02651 5.64301C3.56815 6.32303 3.25465 7.09011 3.10551 7.89651H1.55001C1.47749 7.89651 1.40568 7.91085 1.33872 7.93871C1.27177 7.96657 1.21098 8.00739 1.15986 8.05884C1.10874 8.11028 1.0683 8.17133 1.04087 8.23846C1.01344 8.30559 0.99955 8.37749 1.00001 8.45001V9.55001C1.00001 9.69588 1.05796 9.83578 1.1611 9.93892C1.26425 10.0421 1.40414 10.1 1.55001 10.1H3.10551C3.25439 10.9065 3.56791 11.6736 4.02651 12.3535L2.92401 13.4595C2.87261 13.5106 2.83182 13.5714 2.80399 13.6383C2.77615 13.7053 2.76183 13.777 2.76183 13.8495C2.76183 13.922 2.77615 13.9938 2.80399 14.0607C2.83182 14.1276 2.87261 14.1884 2.92401 14.2395L3.76051 15.076C3.81162 15.1274 3.87239 15.1682 3.93932 15.196C4.00625 15.2239 4.07802 15.2382 4.15051 15.2382C4.223 15.2382 4.29477 15.2239 4.3617 15.196C4.42863 15.1682 4.4894 15.1274 4.54051 15.076L5.64301 13.9735C6.32288 14.432 7.09004 14.7454 7.89651 14.894V16.45C7.89651 16.5225 7.91085 16.5943 7.93871 16.6613C7.96657 16.7283 8.00739 16.789 8.05884 16.8402C8.11028 16.8913 8.17133 16.9317 8.23846 16.9592C8.30559 16.9866 8.37749 17.0005 8.45001 17H9.55001C9.69588 17 9.83578 16.9421 9.93892 16.8389C10.0421 16.7358 10.1 16.5959 10.1 16.45V14.894C10.9065 14.7454 11.6736 14.432 12.3535 13.9735L13.456 15.076C13.5071 15.1274 13.5679 15.1682 13.6348 15.196C13.7018 15.2239 13.7735 15.2382 13.846 15.2382C13.9185 15.2382 13.9903 15.2239 14.0572 15.196C14.1241 15.1682 14.1849 15.1274 14.236 15.076L15.0725 14.2395C15.1239 14.1884 15.1647 14.1276 15.1925 14.0607C15.2204 13.9938 15.2347 13.922 15.2347 13.8495C15.2347 13.777 15.2204 13.7053 15.1925 13.6383C15.1647 13.5714 15.1239 13.5106 15.0725 13.4595L13.97 12.357C14.4286 11.6771 14.7421 10.91 14.891 10.1035H16.45C16.5225 10.1035 16.5943 10.0892 16.6613 10.0613C16.7283 10.0335 16.789 9.99263 16.8402 9.94118C16.8913 9.88974 16.9317 9.8287 16.9592 9.76156C16.9866 9.69443 17.0005 9.62253 17 9.55001V8.45001C17.0005 8.37749 16.9866 8.30559 16.9592 8.23846C16.9317 8.17133 16.8913 8.11028 16.8402 8.05884C16.789 8.00739 16.7283 7.96657 16.6613 7.93871C16.5943 7.91085 16.5225 7.89651 16.45 7.89651V7.89651ZM11.207 9.00001C11.207 9.43651 11.0776 9.86322 10.8351 10.2262C10.5926 10.5891 10.2479 10.872 9.84459 11.039C9.44132 11.2061 8.99756 11.2498 8.56945 11.1646C8.14133 11.0794 7.74808 10.8693 7.43943 10.5606C7.13077 10.2519 6.92058 9.85869 6.83542 9.43058C6.75026 9.00246 6.79397 8.5587 6.96101 8.15543C7.12805 7.75215 7.41093 7.40747 7.77387 7.16496C8.13681 6.92245 8.56351 6.79301 9.00001 6.79301C9.58534 6.79301 10.1467 7.02553 10.5606 7.43943C10.9745 7.85332 11.207 8.41468 11.207 9.00001Z" fill="#464646"/>
</svg>
