<svg width="18" height="19" viewBox="0 0 18 19" fill="none" xmlns="http://www.w3.org/2000/svg">
<path d="M16.5 3.5H1.5C1.36739 3.5 1.24021 3.55268 1.14645 3.64645C1.05268 3.74021 1 3.86739 1 4V15C1 15.1326 1.05268 15.2598 1.14645 15.3536C1.24021 15.4473 1.36739 15.5 1.5 15.5H16.5C16.6326 15.5 16.7598 15.4473 16.8536 15.3536C16.9473 15.2598 17 15.1326 17 15V4C17 3.86739 16.9473 3.74021 16.8536 3.64645C16.7598 3.55268 16.6326 3.5 16.5 3.5ZM16 13.1865L13.364 10.55C13.1765 10.3625 12.9222 10.2572 12.657 10.2572C12.3918 10.2572 12.1375 10.3625 11.95 10.55L10.414 12.086L6.636 8.3075C6.44847 8.12003 6.19416 8.01471 5.929 8.01471C5.66384 8.01471 5.40953 8.12003 5.222 8.3075L2 11.5295V4.5H16V13.1865Z" fill="black"/>
<path d="M13.35 8.5C14.0956 8.5 14.7 7.89558 14.7 7.15C14.7 6.40442 14.0956 5.8 13.35 5.8C12.6044 5.8 12 6.40442 12 7.15C12 7.89558 12.6044 8.5 13.35 8.5Z" fill="black"/>
</svg>
