<svg width="18" height="18" viewBox="0 0 18 18" fill="none" xmlns="http://www.w3.org/2000/svg">
<path d="M8.9001 10.8C9.83898 10.8 10.6001 10.0389 10.6001 9.09999C10.6001 8.16111 9.83898 7.39999 8.9001 7.39999C7.96121 7.39999 7.2001 8.16111 7.2001 9.09999C7.2001 10.0389 7.96121 10.8 8.9001 10.8Z" fill="#464646"/>
<path d="M14.7501 10.8C15.689 10.8 16.4501 10.0389 16.4501 9.09999C16.4501 8.16111 15.689 7.39999 14.7501 7.39999C13.8112 7.39999 13.0501 8.16111 13.0501 9.09999C13.0501 10.0389 13.8112 10.8 14.7501 10.8Z" fill="#464646"/>
<path d="M3.0501 10.8C3.98898 10.8 4.7501 10.0389 4.7501 9.09999C4.7501 8.16111 3.98898 7.39999 3.0501 7.39999C2.11121 7.39999 1.3501 8.16111 1.3501 9.09999C1.3501 10.0389 2.11121 10.8 3.0501 10.8Z" fill="#464646"/>
</svg>
