<svg width="10" height="10" viewBox="0 0 10 10" fill="none" xmlns="http://www.w3.org/2000/svg">
<path d="M3.78805 9.01137C3.48012 9.01121 3.18943 8.86919 3.00005 8.62637L0.712049 5.62637C0.479827 5.34589 0.418427 4.96134 0.55176 4.62249C0.685094 4.28364 0.992081 4.04405 1.35317 3.99702C1.71427 3.95 2.07238 4.10297 2.28805 4.39637L3.78805 6.38737L7.71205 1.39637C7.92772 1.10297 8.28583 0.949999 8.64692 0.997024C9.00802 1.04405 9.315 1.28364 9.44834 1.62249C9.58167 1.96134 9.52027 2.34589 9.28805 2.62637L4.57605 8.62637C4.38667 8.86919 4.09598 9.01121 3.78805 9.01137Z" fill="#FDFDFD"/>
</svg>
