<svg width="18" height="19" viewBox="0 0 18 19" fill="none" xmlns="http://www.w3.org/2000/svg">
<g clip-path="url(#clip0_7001_137)">
<path d="M16.5 5.5H13.5C13.3674 5.5 13.2402 5.55268 13.1464 5.64645C13.0527 5.74021 13 5.86739 13 6V7C13 7.13261 13.0527 7.25978 13.1464 7.35355C13.2402 7.44732 13.3674 7.5 13.5 7.5H15V15.5H3V7.5H4.5C4.63261 7.5 4.75979 7.44732 4.85355 7.35355C4.94732 7.25978 5 7.13261 5 7V6C5 5.86739 4.94732 5.74021 4.85355 5.64645C4.75979 5.55268 4.63261 5.5 4.5 5.5H1.5C1.36739 5.5 1.24021 5.55268 1.14645 5.64645C1.05268 5.74021 1 5.86739 1 6V17C1 17.1326 1.05268 17.2598 1.14645 17.3536C1.24021 17.4473 1.36739 17.5 1.5 17.5H16.5C16.6326 17.5 16.7598 17.4473 16.8536 17.3536C16.9473 17.2598 17 17.1326 17 17V6C17 5.86739 16.9473 5.74021 16.8536 5.64645C16.7598 5.55268 16.6326 5.5 16.5 5.5Z" fill="#222222"/>
<path d="M5.4 4.5H8V10C8 10.1326 8.05268 10.2598 8.14645 10.3536C8.24021 10.4473 8.36739 10.5 8.5 10.5H9.5C9.63261 10.5 9.75979 10.4473 9.85355 10.3536C9.94732 10.2598 10 10.1326 10 10V4.5H12.6C12.7061 4.5 12.8078 4.45786 12.8828 4.38284C12.9579 4.30783 13 4.20608 13 4.1C13.0003 4.00283 12.9647 3.90897 12.9 3.8365L9.1755 0.571998C9.12877 0.526192 9.06594 0.500534 9.0005 0.500534C8.93506 0.500534 8.87223 0.526192 8.8255 0.571998L5.1 3.834C5.0347 3.90711 4.99904 4.00197 5 4.1C5 4.20608 5.04214 4.30783 5.11716 4.38284C5.19217 4.45786 5.29391 4.5 5.4 4.5Z" fill="#222222"/>
</g>
<defs>
<clipPath id="clip0_7001_137">
<rect width="18" height="18" fill="white" transform="translate(0 0.5)"/>
</clipPath>
</defs>
</svg>
