<svg width="17" height="13" viewBox="0 0 17 13" fill="none" xmlns="http://www.w3.org/2000/svg">
<path d="M16.0005 13H1.00049C0.86788 13 0.74068 12.9473 0.646912 12.8535C0.553143 12.7598 0.500488 12.6326 0.500488 12.5V1C0.500488 0.734784 0.60586 0.480429 0.793396 0.292892C0.980932 0.105356 1.23527 0 1.50049 0H6.46552C6.59876 0.000252942 6.73062 0.0268936 6.85352 0.0783844C6.97641 0.129875 7.08789 0.205199 7.18152 0.300003L8.8335 2H15.9995C16.1321 2 16.2593 2.05269 16.353 2.14645C16.4468 2.24022 16.4995 2.36739 16.4995 2.5V12.5C16.4995 12.6324 16.4469 12.7595 16.3534 12.8532C16.2598 12.9469 16.1329 12.9997 16.0005 13ZM6.00647 6.254C5.94076 6.25388 5.87568 6.26671 5.81494 6.29176C5.7542 6.31682 5.69898 6.35359 5.65247 6.39999C5.60588 6.44643 5.56893 6.5016 5.5437 6.56235C5.51848 6.62309 5.50551 6.68822 5.50549 6.754C5.50551 6.81977 5.51848 6.8849 5.5437 6.94565C5.56893 7.00639 5.60588 7.06156 5.65247 7.108L8.14746 9.60201C8.1937 9.64886 8.24884 9.68598 8.30963 9.71123C8.37042 9.73647 8.43564 9.74931 8.50146 9.74899C8.56713 9.74923 8.63219 9.73636 8.69281 9.71112C8.75343 9.68588 8.80841 9.64878 8.85449 9.60201L11.3545 7.108C11.4013 7.06165 11.4384 7.0065 11.4638 6.94576C11.4892 6.88501 11.5024 6.81984 11.5025 6.754C11.5028 6.655 11.4736 6.55816 11.4188 6.47574C11.3639 6.39331 11.2859 6.32901 11.1945 6.291C11.1336 6.26581 11.0684 6.2529 11.0025 6.25301C10.8701 6.25303 10.7432 6.30553 10.6495 6.399L8.50049 8.54201L6.3595 6.39999C6.26596 6.30616 6.13897 6.25429 6.00647 6.254ZM1.50049 1V3H8.40851L6.46649 1H1.50049Z" fill="#464646"/>
</svg>
